<?xml version="1.0" standalone="no"?>
<!DOCTYPE svg PUBLIC "-//W3C//DTD SVG 20010904//EN"
 "http://www.w3.org/TR/2001/REC-SVG-20010904/DTD/svg10.dtd">
<svg version="1.0" xmlns="http://www.w3.org/2000/svg"
 width="1024.000000pt" height="1024.000000pt" viewBox="0 0 1024.000000 1024.000000"
 preserveAspectRatio="xMidYMid meet">
<metadata>
Created by potrace 1.14, written by Peter Selinger 2001-2017
</metadata>
<g transform="translate(0.000000,1024.000000) scale(0.100000,-0.100000)"
fill="#000000" stroke="none">
<path d="M0 5120 l0 -5120 5120 0 5120 0 0 5120 0 5120 -5120 0 -5120 0 0
-5120z m5075 3623 c21 -118 80 -259 132 -318 55 -62 337 -259 400 -280 26 -8
111 -33 189 -55 389 -108 799 -328 1089 -583 l39 -35 -28 -39 c-178 -242 -350
-625 -401 -895 -8 -45 -17 -83 -19 -86 -10 -9 -35 58 -50 132 -21 101 -20 151
3 201 30 62 -8 106 -44 51 -25 -38 -28 -113 -7 -211 11 -49 17 -92 15 -95 -6
-6 -36 35 -88 120 -42 68 -70 84 -92 54 -25 -34 -14 -56 63 -127 73 -69 76
-73 70 -108 -5 -31 -1 -43 20 -68 l25 -30 -22 -30 -22 -30 20 -38 c26 -50 127
-116 341 -224 75 -38 173 -89 217 -113 114 -64 132 -61 69 12 -19 23 -30 42
-24 42 6 0 74 -16 150 -35 153 -39 197 -42 239 -20 50 26 57 89 14 130 -24 22
-194 111 -273 142 -21 8 -13 11 48 16 39 4 97 17 128 28 144 54 225 219 190
387 -28 137 -95 232 -177 253 l-50 13 7 45 c9 68 33 183 39 189 6 7 5 9 47
-63 96 -162 227 -464 247 -571 6 -28 23 -84 39 -125 63 -158 102 -377 102
-574 l0 -120 -561 2 c-388 2 -568 -1 -582 -8 -19 -11 -19 -9 3 22 13 19 32 44
43 56 40 45 8 33 -47 -16 l-56 -51 -383 -2 c-210 -1 -391 -2 -402 -2 -12 -1
-22 -11 -26 -26 -5 -19 -8 -21 -13 -10 -9 23 -138 1069 -164 1334 -8 88 -8 90
16 110 14 12 42 37 64 57 l38 36 0 176 0 176 -36 25 c-21 14 -66 35 -100 47
l-64 23 0 133 c0 73 3 133 8 133 4 0 19 22 35 49 31 56 35 116 12 161 -30 58
-221 172 -312 186 -46 7 -52 14 -28 34 21 17 19 34 -9 67 -13 15 -32 44 -43
63 -13 23 -28 36 -45 38 -22 3 -33 -7 -72 -66 -41 -62 -45 -73 -36 -97 6 -15
9 -29 8 -30 -2 -1 -36 -12 -77 -25 -67 -21 -194 -94 -241 -138 -63 -58 -60
-156 6 -235 22 -27 24 -37 24 -151 l0 -123 -61 -23 c-76 -27 -127 -57 -139
-80 -6 -10 -10 -91 -10 -179 l0 -160 60 -62 c69 -71 67 -54 45 -273 -8 -83
-31 -317 -50 -521 -20 -203 -43 -433 -52 -510 -9 -77 -19 -170 -22 -207 -3
-36 -9 -70 -14 -74 -4 -4 -7 -1 -7 7 0 11 -2 11 -10 -1 -5 -8 -10 -10 -10 -4
0 9 -81 11 -302 8 -167 -3 -384 -4 -483 -3 -283 3 -602 2 -700 -1 -71 -2 -267
2 -512 10 -7 0 -13 9 -13 20 0 20 7 20 1010 20 704 0 1010 3 1010 11 0 5 5 7
10 4 6 -4 10 10 10 34 0 23 -3 40 -7 40 -5 -1 -463 -1 -1019 0 -955 1 -1012 2
-1016 19 -6 26 8 351 15 358 4 4 24 -8 46 -27 69 -60 181 -144 209 -156 73
-33 151 -8 231 75 l56 57 10 -47 c5 -25 13 -49 17 -53 6 -7 28 57 28 83 0 29
32 24 68 -11 49 -47 127 -87 182 -94 36 -4 57 0 103 23 113 53 257 232 257
318 0 17 -7 43 -14 59 -8 15 -10 27 -5 27 25 0 92 58 130 113 244 354 285 428
296 534 7 66 -16 132 -60 169 -28 23 -38 26 -92 22 -145 -10 -464 -222 -707
-471 -64 -66 -120 -117 -126 -113 -5 3 -15 26 -22 50 -11 40 -10 52 8 106 13
36 37 79 61 106 40 46 44 74 11 74 -42 0 -120 -136 -120 -210 0 -47 -17 -43
-30 7 -17 69 -75 189 -94 196 -27 11 -43 -36 -22 -65 42 -59 64 -97 80 -138
16 -42 16 -48 1 -83 -8 -20 -19 -37 -23 -37 -8 0 -148 141 -171 172 -10 14 -6
28 23 87 140 278 456 624 781 857 230 165 545 312 865 404 80 23 152 46 161
50 18 10 207 148 291 213 92 71 132 127 167 233 17 51 34 114 38 139 7 55 18
58 28 8z m741 -88 c9 -36 -2 -55 -29 -55 -36 0 -53 24 -39 55 16 35 59 35 68
0z m-1531 -80 c0 -27 -3 -30 -30 -30 -24 0 -31 5 -33 24 -4 27 13 42 43 39 15
-2 20 -11 20 -33z m813 -162 c18 -25 10 -36 -34 -49 -48 -14 -64 -9 -64 22 0
46 69 66 98 27z m652 -54 c14 -26 -4 -51 -34 -47 -21 3 -32 28 -22 54 8 21 44
17 56 -7z m275 -9 c-3 -5 -10 -10 -16 -10 -5 0 -9 5 -9 10 0 6 7 10 16 10 8 0
12 -4 9 -10z m-1800 -40 c-3 -5 -10 -10 -16 -10 -5 0 -9 5 -9 10 0 6 7 10 16
10 8 0 12 -4 9 -10z m-597 -62 c33 -33 -6 -91 -47 -69 -28 15 -34 41 -15 62
20 22 45 24 62 7z m1564 -12 c96 -19 145 -39 73 -31 -115 14 -249 24 -254 20
-2 -3 11 -40 30 -82 43 -95 59 -101 120 -46 40 36 42 36 37 13 -19 -83 -20
-90 -4 -90 8 0 51 13 96 29 44 16 82 26 85 21 3 -4 -17 -33 -45 -63 -65 -71
-65 -82 0 -73 69 9 65 -11 -15 -71 l-30 -23 48 -43 c53 -49 60 -70 22 -62 -14
3 -37 7 -52 10 -16 3 -36 8 -45 11 -37 11 -16 -14 30 -35 58 -27 103 -61 82
-61 -8 0 -51 7 -95 15 -104 19 -285 19 -409 0 -125 -19 -127 -19 -89 4 124 76
136 88 72 72 -82 -21 -89 -22 -89 -7 0 8 21 33 48 56 l47 41 -39 32 c-75 62
-112 99 -91 92 58 -21 61 -19 32 12 -29 31 -27 49 4 33 23 -13 152 -40 159
-34 2 3 -8 28 -24 55 -15 28 -26 52 -24 54 2 3 21 -7 42 -21 29 -20 40 -23 46
-14 8 13 13 170 6 170 -3 0 -35 -7 -72 -15 -61 -15 -99 -14 -60 1 120 46 227
55 358 30z m1322 -21 c15 -23 15 -27 0 -50 -29 -44 -84 -27 -84 25 0 52 55 69
84 25z m-3625 -79 c7 -8 11 -27 9 -43 -3 -25 -7 -28 -37 -28 -25 0 -36 5 -42
21 -16 44 42 85 70 50z m1091 -21 c0 -33 -43 -48 -54 -19 -10 25 12 46 35 33
10 -5 19 -11 19 -14z m3270 -66 c9 -16 8 -26 -5 -45 -26 -39 -75 -26 -75 21 0
45 60 63 80 24z m-486 -5 c10 -4 16 -18 16 -36 0 -26 -3 -29 -27 -26 -31 3
-42 30 -23 53 14 17 13 17 34 9z m-3286 -47 c4 -20 -25 -34 -40 -19 -15 15 -1
44 19 40 10 -2 19 -11 21 -21z m-295 -39 c7 -21 -4 -38 -23 -38 -23 0 -32 13
-24 34 7 19 40 21 47 4z m-663 -75 c40 -45 67 -104 75 -163 6 -42 5 -44 -9
-26 -9 11 -27 32 -41 48 -33 36 -48 76 -40 105 4 17 2 21 -9 17 -21 -8 -29
-39 -17 -63 18 -32 11 -40 -18 -22 -14 9 -26 103 -17 128 10 24 43 14 76 -24z
m4438 -30 c-5 -25 -28 -28 -28 -4 0 12 6 21 16 21 9 0 14 -7 12 -17z m-4438
-123 c0 -5 -2 -10 -4 -10 -3 0 -8 5 -11 10 -3 6 -1 10 4 10 6 0 11 -4 11 -10z
m5120 -30 c0 -11 -2 -20 -4 -20 -2 0 -11 -3 -19 -6 -15 -5 -31 21 -21 37 11
18 44 10 44 -11z m-4611 -25 c14 -13 13 -18 -10 -40 -13 -14 -35 -27 -47 -30
-25 -4 -26 -2 -12 25 5 10 7 25 4 33 -4 12 -13 7 -39 -19 -31 -31 -39 -34 -87
-32 l-53 1 50 7 50 7 -55 1 c-52 2 -80 -9 -80 -30 0 -4 6 -8 14 -8 7 0 19 -7
26 -15 16 -20 2 -18 -99 11 -16 5 34 44 89 71 87 41 217 51 249 18z m-419 -37
c0 -13 -17 -9 -40 10 -14 11 -20 24 -16 31 5 8 14 5 32 -11 13 -13 24 -26 24
-30z m-158 -30 c-7 -7 -12 -8 -12 -2 0 14 12 26 19 19 2 -3 -1 -11 -7 -17z
m106 3 c38 -15 37 -26 -2 -55 -22 -17 -29 -18 -35 -7 -6 10 -19 12 -45 7 -20
-4 -36 -3 -36 1 0 11 20 40 20 29 0 -5 7 -3 15 4 9 8 29 10 53 7 l37 -6 -27
15 c-16 8 -28 17 -28 20 0 3 3 4 8 2 4 -3 22 -10 40 -17z m2472 -10 c0 -47 10
-61 41 -61 28 0 29 2 29 46 0 45 0 45 33 42 31 -3 32 -5 30 -42 -3 -44 7 -56
51 -56 28 0 29 1 23 45 -7 47 -6 48 31 39 18 -5 22 -13 22 -50 0 -41 2 -43 38
-53 50 -14 54 -14 49 7 -20 71 -19 74 10 70 26 -3 28 -6 27 -49 0 -44 2 -47
35 -59 65 -22 132 -53 127 -57 -2 -2 -44 9 -93 25 -124 42 -242 57 -428 56
-207 -1 -315 -20 -500 -89 -18 -7 -18 -6 -5 8 17 18 204 87 237 87 43 0 53 10
53 55 0 30 5 45 16 49 36 14 44 7 44 -39 0 -38 3 -45 19 -45 41 0 51 11 51 56
0 42 1 44 30 44 26 0 30 -3 30 -29z m2253 12 c15 -18 22 -48 19 -89 -2 -17 -8
-21 -29 -18 -16 2 -20 1 -10 -2 20 -6 23 -54 5 -72 -17 -17 -45 -15 -52 3 -3
8 -9 14 -13 14 -12 -3 -46 12 -65 29 -15 13 -22 8 -69 -42 -35 -38 -60 -56
-76 -56 l-24 0 31 44 c17 24 59 70 93 102 109 103 156 124 190 87z m-4343 -30
c0 -9 -29 -33 -39 -33 -6 0 -11 2 -11 4 0 2 -3 11 -6 19 -3 10 1 17 13 19 19
4 43 -1 43 -9z m1826 -25 c-7 -37 -5 -34 -32 -42 -18 -6 -22 -2 -26 25 -4 24
0 33 16 39 41 17 49 12 42 -22z m-1906 -10 c0 -13 -23 -5 -28 10 -2 7 2 10 12
6 9 -3 16 -11 16 -16z m1768 -25 c-2 -31 -7 -39 -25 -41 -20 -3 -23 1 -23 27
0 18 7 34 18 40 28 17 33 13 30 -26z m902 22 c15 -18 9 -50 -10 -50 -10 0 -16
12 -18 33 -3 34 8 41 28 17z m-2815 -36 c-12 -19 8 -37 36 -34 32 4 40 -10 10
-18 -15 -4 -18 -11 -14 -27 14 -52 -34 10 -51 66 -4 14 -2 21 8 21 9 0 13 -4
11 -8z m-30 -71 c-6 -5 -5 -8 3 -8 6 0 12 -5 12 -11 0 -23 -25 -1 -25 23 -1
14 -6 32 -13 40 -6 8 -9 18 -6 21 4 4 14 -8 23 -26 11 -21 13 -35 6 -39z
m4480 -12 c43 -18 44 -36 6 -78 -29 -32 -31 -33 -58 -18 -36 20 -42 61 -14 89
25 25 23 25 66 7z m555 -37 c0 -5 -7 -9 -15 -9 -15 0 -20 12 -9 23 8 8 24 -1
24 -14z m-2367 -33 c93 -25 209 -75 222 -95 3 -6 -23 3 -58 19 -115 52 -206
65 -452 65 -199 0 -229 -2 -310 -24 -49 -13 -112 -32 -139 -43 -71 -28 -68
-15 6 20 142 68 276 92 478 88 128 -3 172 -8 253 -30z m1937 8 c0 -36 -17 -64
-41 -64 -26 0 -34 22 -18 52 23 44 59 52 59 12z m-4824 -11 c-10 -10 -19 5
-10 18 6 11 8 11 12 0 2 -7 1 -15 -2 -18z m5034 12 c6 -8 9 -23 5 -35 -11 -36
-65 -19 -65 21 0 28 40 38 60 14z m-539 -43 c-25 -36 -81 -85 -89 -78 -6 7 19
45 59 91 39 44 63 33 30 -13z m124 -55 c22 -34 14 -69 -21 -87 -74 -38 -141
-96 -199 -170 -71 -91 -95 -116 -95 -100 0 43 -112 -180 -162 -323 -17 -48
-32 -86 -34 -84 -8 7 38 183 71 272 68 182 161 331 269 434 85 80 143 99 171
58z m-4395 -12 c0 -8 -4 -15 -10 -15 -5 0 -10 7 -10 15 0 8 5 15 10 15 6 0 10
-7 10 -15z m2655 -44 c98 -27 121 -44 33 -25 -130 30 -441 29 -633 -1 -48 -7
85 35 140 45 28 5 124 7 215 6 133 -2 180 -7 245 -25z m1858 -28 c-7 -20 -16
-28 -34 -28 -33 0 -37 37 -9 65 20 20 24 21 37 7 12 -11 13 -22 6 -44z m-5116
-57 c50 -7 209 -82 191 -90 -7 -3 -1 -4 14 -1 15 3 30 1 33 -5 3 -6 -1 -7 -9
-4 -9 3 -16 2 -16 -4 0 -5 7 -12 15 -16 34 -13 2 -86 -38 -86 -11 0 -33 12
-48 26 -23 22 -26 32 -22 60 4 27 2 34 -10 34 -10 0 -14 -6 -11 -15 4 -9 0
-15 -9 -15 -9 0 -18 -9 -22 -19 -8 -25 -44 -34 -62 -15 -19 19 -27 18 -19 -2
14 -35 -39 -60 -63 -30 -10 11 -9 21 4 45 18 35 17 36 -20 17 -22 -11 -32 -12
-46 -3 -11 7 -19 15 -19 20 0 4 -4 5 -10 2 -14 -9 -12 35 3 65 13 27 69 51
102 45 11 -2 39 -6 62 -9z m5786 -13 c28 -32 26 -83 -4 -83 -11 0 -29 -5 -39
-10 -15 -8 -22 -5 -34 12 -21 30 -20 50 4 76 25 27 51 28 73 5z m-831 -1 c-7
-5 -10 -16 -6 -25 5 -14 2 -16 -12 -10 -17 6 -18 5 -4 -12 14 -17 13 -18 -5
-13 -14 3 -31 -6 -55 -29 -40 -38 -75 -47 -44 -11 47 54 112 108 129 108 6 0
4 -4 -3 -8z m116 -39 c-2 -17 -10 -29 -20 -31 -14 -3 -18 3 -18 27 0 25 4 31
21 31 16 0 20 -5 17 -27z m-3222 -38 c20 -30 12 -74 -14 -76 -16 -1 -16 -2 1
-6 22 -6 23 -51 0 -98 -18 -38 -39 -48 -28 -14 10 31 -3 89 -21 89 -8 0 -17
-7 -21 -15 -7 -19 -63 -50 -63 -35 0 5 -9 10 -20 10 -26 0 -37 27 -21 52 20
32 7 31 -22 -2 -31 -34 -85 -41 -108 -14 -12 15 -11 19 10 32 13 9 69 33 124
54 55 21 103 40 105 43 15 15 63 3 78 -20z m1133 -1 c17 -4 28 -11 25 -16 -4
-6 9 -7 33 -2 57 10 33 -7 -87 -62 -109 -50 -245 -125 -317 -175 -23 -16 -44
-29 -48 -29 -9 0 4 176 15 206 11 27 68 49 170 64 41 7 82 13 90 15 29 5 88 5
119 -1z m68 0 c-3 -3 -12 -4 -19 -1 -8 3 -5 6 6 6 11 1 17 -2 13 -5z m-2757
-29 c17 -9 30 -20 30 -25 0 -5 -16 0 -35 11 -51 31 -47 41 5 14z m5487 9 c-3
-3 -12 -4 -19 -1 -8 3 -5 6 6 6 11 1 17 -2 13 -5z m-699 -35 c3 -29 -20 -65
-36 -55 -16 9 -15 59 0 74 17 17 33 9 36 -19z m401 -33 c15 -18 3 -46 -20 -46
-22 0 -34 22 -25 45 7 19 30 19 45 1z m-535 -8 c-5 -7 -9 -20 -9 -29 -2 -23
-24 -51 -132 -166 -103 -110 -190 -189 -199 -180 -3 3 -2 22 2 43 5 28 9 34
13 21 6 -15 21 -4 86 64 107 110 125 128 174 172 27 24 40 44 37 53 -3 9 -11
12 -17 9 -5 -4 -21 -8 -35 -10 -14 -1 -31 -8 -37 -15 -10 -10 -6 -11 18 -6 22
5 26 4 15 -4 -8 -5 -25 -10 -37 -10 -12 0 -27 -10 -34 -22 -10 -19 -48 -64
-89 -106 -8 -9 -30 -36 -47 -61 -44 -61 -42 -37 3 50 51 99 123 174 182 193
61 18 116 20 106 4z m-4863 -18 c23 -13 25 -53 3 -74 -19 -20 -24 -20 -52 0
-24 17 -29 53 -10 72 15 15 33 15 59 2z m1427 -2 c-6 -17 -67 -52 -76 -43 -8
8 47 55 66 55 8 0 12 -6 10 -12z m-1145 -24 c47 -25 78 -51 93 -80 13 -24 12
-25 -9 -18 -12 3 -37 13 -56 20 -18 8 -44 11 -57 8 -22 -6 -34 8 -16 19 4 2 1
2 -5 1 -7 -2 -13 1 -13 6 0 6 -9 10 -20 10 -16 0 -19 -5 -15 -23 5 -17 2 -24
-9 -24 -20 0 -22 67 -4 85 17 17 73 15 111 -4z m1416 -23 c9 -6 11 -18 7 -35
-5 -21 -12 -26 -36 -26 -25 0 -30 4 -30 25 0 13 8 29 18 34 21 13 24 13 41 2z
m-1464 -72 c16 -6 14 -8 -11 -8 -29 -1 -30 1 -25 32 4 29 5 30 11 8 3 -13 14
-28 25 -32z m1325 31 c22 -22 25 -42 10 -71 -10 -18 -12 -18 -37 -1 -38 24
-136 21 -194 -7 -24 -12 -36 -19 -26 -16 51 14 158 17 187 5 16 -7 30 -15 30
-19 0 -9 -17 -33 -21 -30 -13 7 -196 -15 -257 -32 -85 -22 -116 -42 -223 -138
-81 -75 -99 -84 -99 -51 0 46 167 209 295 288 132 81 292 115 335 72z m-1679
-85 c123 -83 159 -120 211 -220 28 -55 61 -100 105 -142 l64 -62 -21 -29 c-12
-16 -25 -54 -29 -83 l-7 -54 -16 55 c-9 30 -19 67 -22 81 -3 15 -39 59 -82
100 -42 41 -110 124 -152 184 -42 61 -95 138 -119 173 -24 34 -40 62 -37 62 4
0 51 -29 105 -65z m239 51 c6 -8 10 -25 8 -38 -2 -17 -10 -23 -28 -23 -20 0
-26 6 -28 29 -5 40 25 59 48 32z m5510 -17 c0 -26 -28 -35 -47 -16 -13 13 -14
19 -4 30 16 20 51 10 51 -14z m-5343 5 c-3 -3 -12 -4 -19 -1 -8 3 -5 6 6 6 11
1 17 -2 13 -5z m1388 -15 c7 -11 -13 -69 -24 -69 -12 1 -41 27 -41 38 0 11 38
42 52 42 4 0 10 -5 13 -11z m3481 -16 c8 -29 -6 -58 -26 -58 -7 0 -22 13 -34
28 -21 28 -21 29 -2 43 31 22 55 17 62 -13z m804 -3 c0 -5 -4 -10 -10 -10 -5
0 -10 5 -10 10 0 6 5 10 10 10 6 0 10 -4 10 -10z m-5611 -36 c76 -22 178 -76
225 -118 48 -43 43 -56 -7 -22 -76 52 -80 47 -13 -19 81 -80 74 -98 -11 -29
-68 56 -187 134 -203 134 -6 0 -2 -14 10 -30 23 -32 21 -67 -3 -53 -15 9 -147
157 -147 165 0 7 82 -8 149 -28z m2842 14 c0 -10 2 -10 6 0 2 6 9 12 14 12 6
0 2 -13 -8 -30 -9 -16 -20 -30 -24 -30 -3 0 -10 -10 -16 -23 -6 -12 -34 -51
-62 -86 -60 -75 -67 -99 -13 -46 32 32 112 83 112 71 0 -2 -32 -35 -71 -72
-70 -69 -77 -89 -20 -60 16 9 36 16 42 16 15 0 -48 -63 -104 -105 -48 -35 -41
-42 16 -17 25 11 48 18 51 14 3 -3 6 0 6 6 0 7 10 12 22 12 21 0 21 0 3 -20
-10 -12 -25 -18 -32 -15 -8 2 -11 1 -8 -4 4 -8 -30 -36 -121 -99 -31 -21 40
-4 100 24 139 65 59 -18 -97 -100 -59 -31 -95 -56 -82 -56 18 0 200 65 203 73
5 10 52 9 52 -1 0 -12 -196 -132 -242 -148 -10 -4 -18 -11 -18 -16 0 -6 8 -7
18 -3 132 53 208 67 157 28 -11 -8 -114 -62 -230 -119 -196 -96 -315 -166
-393 -230 -18 -15 -34 -25 -37 -23 -2 3 5 112 15 244 10 132 22 282 25 333 7
84 10 97 36 126 25 29 142 112 264 187 51 32 186 88 295 124 47 15 94 31 105
35 29 12 35 12 36 -2z m-3000 -54 c9 -11 10 -20 2 -32 -13 -22 -43 -22 -56 -1
-24 38 25 68 54 33z m1414 -4 c4 -6 -1 -22 -10 -36 -21 -32 -51 -28 -47 6 4
35 42 54 57 30z m985 -30 c0 -17 -7 -20 -45 -20 -25 0 -45 4 -45 8 0 18 26 32
57 32 26 0 33 -4 33 -20z m2397 4 c-3 -3 -12 -4 -19 -1 -8 3 -5 6 6 6 11 1 17
-2 13 -5z m211 -6 c20 -20 15 -66 -9 -78 -11 -7 -27 -9 -35 -6 -19 7 -18 55 3
78 19 21 25 22 41 6z m-249 -41 c-10 -22 -19 -27 -51 -27 -21 0 -38 3 -38 8 0
12 84 60 93 52 4 -4 3 -19 -4 -33z m-3663 14 c-20 -8 -31 -51 -13 -51 21 0
-17 -29 -46 -35 -18 -4 -67 -18 -110 -31 -99 -30 -124 -31 -75 0 21 12 36 25
33 27 -9 10 171 99 200 98 24 0 26 -2 11 -8z m3739 -16 c-16 -14 -38 -25 -47
-25 -9 0 -20 -4 -23 -10 -3 -6 1 -7 12 -4 19 6 -42 -28 -70 -39 -10 -4 0 10
22 31 21 20 59 44 83 53 57 22 58 22 23 -6z m-4217 -7 c-4 -27 -28 -36 -28
-10 0 20 8 32 22 32 5 0 8 -10 6 -22z m-563 -29 c8 -26 -16 -54 -39 -46 -19 7
-21 38 -4 55 18 18 36 14 43 -9z m150 11 c3 -5 1 -10 -4 -10 -6 0 -11 5 -11
10 0 6 2 10 4 10 3 0 8 -4 11 -10z m4688 -7 c4 -3 -2 -12 -13 -20 -14 -10 -19
-24 -17 -45 2 -27 -2 -32 -28 -39 -33 -10 -135 -1 -135 11 0 5 17 11 38 15 24
4 58 22 87 46 48 40 57 44 68 32z m-3563 -21 c0 -10 -6 -27 -14 -37 -12 -16
-16 -17 -30 -6 -19 16 -21 47 -3 54 27 11 47 7 47 -11z m1840 -340 c21 -174
44 -355 49 -402 10 -85 49 -399 97 -775 46 -359 73 -608 68 -617 -12 -19 -22
-5 -27 40 -50 384 -72 571 -97 797 -17 149 -37 322 -45 385 -84 666 -114 959
-95 912 5 -13 28 -166 50 -340z m2616 316 c-4 -22 -9 -45 -12 -50 -9 -13 -34
12 -34 33 0 11 -7 19 -16 19 -13 0 -14 -3 -4 -15 13 -16 14 -15 -51 -87 -41
-48 -64 -61 -53 -33 8 19 0 19 -20 0 -8 -8 -17 -12 -20 -7 -2 4 18 38 45 76
49 66 105 105 153 106 16 0 18 -5 12 -42z m-5157 -15 c0 -10 -4 -36 -8 -58 -9
-40 -9 -39 -10 18 0 32 3 57 9 57 6 0 10 -8 9 -17z m4689 -2 c20 -10 48 -28
61 -40 26 -23 71 -81 71 -92 0 -12 -41 3 -47 17 -3 8 -13 14 -22 14 -23 1 -48
22 -65 55 l-15 28 -12 -27 c-14 -31 -28 -29 -48 6 -31 54 9 74 77 39z m-308
-19 c0 -21 -27 -62 -41 -62 -18 0 -21 30 -5 55 19 29 46 33 46 7z m-5563 -18
c8 -21 -13 -42 -28 -27 -13 13 -5 43 11 43 6 0 13 -7 17 -16z m4607 -10 c4 -9
4 -19 2 -21 -8 -8 -26 8 -26 23 0 19 16 18 24 -2z m2014 -22 c2 -14 -2 -22
-11 -22 -17 0 -30 27 -21 41 9 16 29 4 32 -19z m-316 -7 c-7 -36 -15 -35 -27
3 -6 20 -4 23 12 20 12 -2 17 -11 15 -23z m-1021 -2 c28 -14 31 -18 14 -21
-11 -2 -31 -7 -45 -12 -14 -5 -70 -11 -124 -15 -90 -6 -98 -5 -87 9 8 9 21 16
31 16 10 0 23 6 30 14 22 28 133 33 181 9z m132 -23 c-4 -4 -18 -11 -30 -15
-28 -8 -32 19 -6 34 19 10 50 -6 36 -19z m522 -37 l30 -11 -35 -1 c-19 0 -42
3 -50 9 -9 6 -17 5 -21 -2 -5 -8 -39 43 -39 59 0 2 19 -7 43 -19 23 -13 56
-28 72 -35z m-1255 -59 c0 -23 -8 -16 -35 29 -34 59 -32 68 5 22 17 -21 30
-44 30 -51z m1564 59 c-28 -21 -47 -17 -27 6 9 11 23 17 31 14 12 -5 12 -8 -4
-20z m-84 -27 c-19 -6 -41 -15 -47 -19 -9 -5 -13 -3 -13 8 0 9 4 14 9 10 5 -3
12 -1 16 5 3 5 21 10 38 9 l32 -1 -35 -12z m-5418 -48 c-7 -7 -12 -8 -12 -2 0
14 12 26 19 19 2 -3 -1 -11 -7 -17z m55 6 c-3 -3 -12 -4 -19 -1 -8 3 -5 6 6 6
11 1 17 -2 13 -5z m5443 -3 c0 -5 -16 -9 -35 -8 -19 1 -35 5 -35 9 0 4 16 8
35 8 19 0 35 -4 35 -9z m-4607 -40 c5 -5 7 -16 5 -23 -10 -25 -177 -6 -186 21
-2 6 -11 11 -21 11 -9 0 -25 6 -35 13 -16 11 2 11 105 0 68 -7 127 -17 132
-22z m4497 35 c0 -2 -7 -7 -16 -10 -8 -3 -12 -2 -9 4 6 10 25 14 25 6z m-5165
-16 c-4 -6 -17 -10 -30 -10 -12 0 -26 -7 -29 -16 -3 -9 -12 -14 -20 -11 -7 3
-32 1 -54 -5 -36 -9 -45 -7 -74 13 l-33 24 70 5 c128 10 176 10 170 0z m5980
-20 c-5 -8 -11 -8 -17 -2 -6 6 -7 16 -3 22 5 8 11 8 17 2 6 -6 7 -16 3 -22z
m-5910 -6 c-11 -8 -30 -24 -43 -34 -12 -11 -27 -20 -33 -20 -5 0 -8 -4 -5 -9
4 -5 0 -12 -6 -14 -10 -4 -9 -8 2 -16 8 -5 11 -13 7 -18 -5 -4 -12 -1 -18 7
-8 13 -13 11 -29 -9 -15 -18 -20 -19 -20 -7 0 14 -3 14 -20 4 -11 -7 -21 -19
-24 -28 -2 -8 -4 -3 -5 11 -1 34 38 70 129 117 73 37 105 45 65 16z m689 -22
c-9 -49 -18 -58 -49 -44 -32 15 -23 46 11 39 21 -4 24 0 24 25 0 17 4 27 10
23 6 -4 8 -22 4 -43z m-1039 28 c3 -5 -1 -10 -9 -10 -9 0 -16 5 -16 10 0 6 4
10 9 10 6 0 13 -4 16 -10z m741 -47 c49 -25 91 -48 93 -50 8 -6 -8 -15 -43
-23 -31 -7 -38 -4 -62 24 -15 17 -41 46 -57 64 -17 17 -28 32 -25 32 3 0 46
-21 94 -47z m4603 20 c-19 -51 -69 -71 -69 -27 0 14 -4 23 -9 20 -5 -4 -11 -1
-13 6 -3 8 -7 6 -11 -5 -3 -9 0 -23 8 -31 18 -17 19 -26 5 -26 -16 0 -29 43
-19 62 5 9 17 15 27 13 10 -2 25 1 33 6 8 5 24 9 36 9 20 0 21 -3 12 -27z
m191 7 c0 -5 -6 -9 -12 -7 -7 1 -12 -4 -10 -10 3 -17 -6 -16 -24 1 -21 21 -18
26 16 26 17 0 30 -4 30 -10z m-1234 -15 c67 -17 86 -31 29 -20 -38 6 -108 32
-93 34 4 1 33 -6 64 -14z m-4258 -11 c39 -19 41 -37 6 -52 -42 -20 -90 22 -63
54 14 18 19 17 57 -2z m4172 -4 c10 -5 47 -14 83 -19 35 -5 84 -19 108 -31 24
-12 64 -33 89 -45 25 -12 71 -31 102 -41 32 -11 58 -22 58 -27 0 -14 -199 18
-270 44 -66 24 -140 66 -140 79 0 6 -6 10 -13 10 -8 0 -22 9 -32 20 -20 22
-14 26 15 10z m1350 -36 c0 -8 -4 -14 -9 -14 -11 0 -22 26 -14 34 9 9 23 -3
23 -20z m-105 -4 c3 -5 2 -10 -4 -10 -5 0 -13 5 -16 10 -3 6 -2 10 4 10 5 0
13 -4 16 -10z m-5119 -35 c-9 -13 -16 -30 -16 -37 -1 -17 -49 -72 -57 -65 -3
3 4 19 16 35 12 17 21 34 21 39 0 10 38 53 47 53 3 0 -2 -11 -11 -25z m628 7
c9 -14 -24 -52 -45 -52 -23 0 -25 23 -3 44 17 17 40 21 48 8z m-840 -28 c6
-16 -9 -44 -25 -44 -4 0 -15 7 -24 16 -12 12 -13 19 -4 30 16 19 45 18 53 -2z
m626 -89 c-7 -8 -24 -15 -39 -15 -20 0 -22 3 -11 9 8 6 17 8 21 5 4 -2 10 0
14 6 3 5 11 10 17 10 7 0 6 -6 -2 -15z m128 -2 c-4 -22 -38 -30 -38 -10 0 14
13 24 33 26 5 1 7 -7 5 -16z m4562 2 c0 -8 -4 -15 -10 -15 -5 0 -10 7 -10 15
0 8 5 15 10 15 6 0 10 -7 10 -15z m-5250 -9 c0 -24 -26 -38 -40 -22 -6 9 -9
20 -5 26 9 15 45 12 45 -4z m606 -22 c4 -17 2 -29 -7 -35 -20 -12 -33 5 -25
35 8 33 24 33 32 0z m-1116 -4 c0 -5 -4 -10 -10 -10 -5 0 -10 5 -10 10 0 6 5
10 10 10 6 0 10 -4 10 -10z m572 -12 c8 -21 -2 -38 -23 -38 -19 0 -27 29 -12
43 11 11 31 8 35 -5z m2468 -38 c13 -8 13 -10 -2 -10 -9 0 -20 5 -23 10 -8 13
5 13 25 0z m-74 -25 c-69 -24 -74 -35 -77 -175 -2 -69 -2 -162 -1 -207 l2 -82
41 14 c90 32 68 10 -61 -62 -41 -23 -70 -43 -63 -43 7 0 56 16 109 35 54 19
99 33 101 32 1 -2 -84 -46 -190 -98 -228 -112 -343 -179 -378 -221 -27 -32
-32 -75 -31 -263 0 -41 -2 -54 -8 -40 -7 16 -9 13 -9 -17 -1 -30 -8 -43 -43
-72 -23 -20 -46 -36 -51 -36 -4 0 -6 24 -3 53 10 90 45 495 57 667 10 148 14
169 36 202 51 75 387 283 492 304 17 4 34 11 37 15 3 5 22 9 42 9 l37 -1 -39
-14z m-2884 -170 c0 -5 -5 -11 -11 -13 -6 -2 -11 4 -11 13 0 9 5 15 11 13 6
-2 11 -8 11 -13z m5716 -37 c-2 -13 -10 -23 -18 -23 -8 0 -16 10 -18 23 -3 17
2 22 18 22 16 0 21 -5 18 -22z m-5990 -17 c5 -30 -10 -45 -37 -36 -21 6 -29
43 -14 59 15 15 48 1 51 -23z m6372 -16 c0 -8 -9 -15 -20 -15 -11 0 -20 7 -20
15 0 8 9 15 20 15 11 0 20 -7 20 -15z m-1809 -38 l-10 -26 586 -1 c323 0 589
-2 591 -5 2 -2 1 -21 -3 -42 -8 -36 -8 -37 -15 -13 -5 14 -9 18 -9 10 -1 -12
-3 -12 -10 -2 -6 10 -51 12 -204 10 -108 -2 -197 -6 -197 -10 0 -5 -229 -3
-250 2 -20 5 -473 -1 -481 -6 -6 -4 -15 -1 -19 6 -7 11 -12 10 -25 -3 -19 -20
-29 -22 -18 -4 4 6 8 18 9 25 1 6 14 26 28 43 14 17 26 35 26 41 0 6 2 9 5 6
3 -3 1 -17 -4 -31z m-728 -26 c51 2 208 3 350 1 216 -2 257 -4 257 -16 0 -8
-4 -17 -10 -21 -5 -3 -85 -8 -177 -10 -92 -3 -232 -7 -309 -11 -78 -3 -163 -2
-188 1 -40 6 -46 10 -46 31 0 13 5 24 10 24 6 0 11 12 11 28 l2 27 4 -28 5
-29 91 3z m-100 -91 c-3 -12 -8 -19 -11 -16 -5 6 5 36 12 36 2 0 2 -9 -1 -20z
m747 -35 c0 -8 -4 -15 -10 -15 -5 0 -7 7 -4 15 4 8 8 15 10 15 2 0 4 -7 4 -15z
m-731 -72 c-2 -77 -2 -77 -8 -23 -7 51 -4 100 5 100 2 0 3 -35 3 -77z m-1984
47 c3 -5 -3 -10 -14 -10 -12 0 -21 5 -21 10 0 6 6 10 14 10 8 0 18 -4 21 -10z
m665 -26 c0 -8 -4 -12 -10 -9 -5 3 -10 1 -10 -6 0 -8 -4 -8 -15 1 -22 18 -18
30 10 30 16 0 25 -6 25 -16z m-376 -3 c8 -12 -21 -34 -34 -26 -17 11 -11 35 9
35 11 0 22 -4 25 -9z m2372 -43 c-14 -24 -26 -39 -26 -34 0 13 43 86 48 82 2
-3 -8 -24 -22 -48z m1639 22 c8 -25 -10 -50 -36 -50 -20 0 -36 40 -24 59 11
19 53 12 60 -9z m-1783 -12 c-7 -7 -12 -8 -12 -2 0 14 12 26 19 19 2 -3 -1
-11 -7 -17z m-3978 -64 c8 -21 -11 -44 -35 -44 -19 0 -35 33 -24 50 10 16 52
12 59 -6z m177 -53 c0 10 2 11 6 2 4 -10 168 -13 777 -13 663 0 775 -2 792
-15 10 -8 15 -15 9 -15 -5 -1 -370 -1 -810 0 l-800 0 -3 27 c-3 24 -2 25 12
14 13 -11 16 -11 17 0z m3506 -11 c208 0 224 -1 221 -17 -3 -17 -22 -18 -231
-18 l-227 0 1 30 c0 17 3 24 6 18 3 -10 59 -13 230 -13z m2304 -288 c-22 -167
-142 -663 -166 -690 -2 -2 -15 9 -29 23 -24 23 -25 30 -17 61 6 23 6 32 -1 28
-6 -4 1 13 15 37 29 49 77 171 77 195 0 9 -25 -14 -55 -49 -58 -68 -125 -126
-125 -108 0 6 32 77 71 158 127 266 197 446 231 598 l13 60 3 -83 c2 -46 -6
-149 -17 -230z m-3995 288 c113 0 124 -2 124 -18 0 -11 -7 -19 -17 -19 -10 1
-55 0 -100 -1 -74 -2 -82 -4 -76 -19 6 -17 5 -17 -13 -1 -10 10 -32 29 -49 44
-19 16 -23 24 -12 20 10 -3 75 -6 143 -6z m3034 -11 c0 -5 -6 -12 -12 -14 -7
-3 -228 -6 -491 -8 -439 -2 -477 -1 -477 15 0 9 4 18 10 20 27 9 970 -3 970
-13z m360 -4 c0 -6 -67 -12 -170 -15 -151 -4 -170 -3 -170 11 0 9 2 18 4 20 9
9 336 -6 336 -16z m-1923 -57 c-3 -8 -6 -5 -6 6 -1 11 2 17 5 13 3 -3 4 -12 1
-19z m553 -55 c-11 -17 -11 -17 -6 0 3 10 6 24 7 30 0 9 2 9 5 0 3 -7 0 -20
-6 -30z m-1545 -123 c0 -11 -13 -16 -47 -18 -51 -3 -65 12 -25 28 32 13 72 8
72 -10z m555 -59 c22 -6 15 -11 -55 -40 -44 -18 -88 -38 -98 -43 -33 -17 -12
-19 33 -3 24 9 51 13 59 10 8 -3 18 -1 21 6 4 6 15 9 23 7 15 -3 -62 -45 -196
-109 -26 -13 -53 -30 -60 -38 -11 -14 -9 -14 13 0 46 28 315 97 328 84 3 -3 0
-5 -7 -5 -7 0 -81 -34 -165 -75 -84 -41 -158 -75 -165 -75 -6 0 -11 -5 -11
-11 0 -7 7 -8 18 -4 9 4 31 11 47 15 17 4 55 17 85 28 57 22 192 53 199 46 2
-2 -10 -7 -27 -10 -18 -4 -32 -10 -32 -14 0 -5 -26 -22 -57 -38 -32 -16 -105
-52 -162 -81 -57 -29 -101 -54 -99 -56 2 -3 69 18 149 45 149 52 183 58 195
38 5 -8 2 -9 -9 -5 -10 3 -17 3 -17 -1 0 -5 -83 -50 -185 -102 -101 -52 -186
-99 -189 -105 -2 -6 22 2 53 16 55 27 293 109 314 109 14 0 -175 -92 -292
-142 -251 -106 -442 -209 -514 -277 -37 -34 -57 -83 -57 -140 0 -35 -5 -49
-20 -59 -25 -16 -26 -41 5 341 l26 312 43 40 c41 38 65 56 229 160 71 46 188
98 272 122 64 19 153 42 184 48 13 2 26 7 29 10 7 7 61 5 92 -4z m-985 -71 c4
-7 -217 -10 -657 -10 -432 0 -658 4 -648 10 21 13 1297 13 1305 0z m1695 0
c10 -7 -21 -10 -97 -10 -61 0 -118 -3 -127 -6 -11 -4 -16 -1 -16 10 0 14 16
16 113 16 61 0 119 -5 127 -10z m725 0 c31 -4 -65 -8 -248 -9 -197 -1 -296 2
-292 9 7 12 464 12 540 0z m172 -6 c-3 -3 -12 -4 -19 -1 -8 3 -5 6 6 6 11 1
17 -2 13 -5z m561 -1 c-26 -2 -71 -2 -100 0 -29 2 -8 3 47 3 55 0 79 -1 53 -3z
m-5670 -36 c2 -12 -3 -17 -17 -17 -12 0 -21 6 -21 13 0 31 32 34 38 4z m5130
-106 c31 -33 159 -138 293 -242 92 -72 461 -373 749 -611 122 -101 168 -152
133 -147 -22 3 -99 -29 -90 -37 4 -4 19 -2 34 4 15 6 44 13 63 15 l35 6 -35
-16 c-19 -9 -38 -16 -42 -15 -5 1 -8 -2 -8 -8 0 -5 -5 -10 -11 -10 -6 0 -40
-13 -75 -30 -104 -49 -183 -85 -279 -128 -79 -35 -156 -71 -340 -157 -27 -13
-106 -49 -175 -80 -181 -83 -182 -83 -460 -212 -41 -20 -97 -45 -125 -58 -49
-21 -252 -117 -463 -216 -57 -27 -105 -49 -107 -49 -2 0 -61 -27 -132 -61
-271 -129 -448 -212 -523 -246 -83 -38 -183 -85 -305 -143 -60 -28 -130 -61
-155 -72 -25 -11 -103 -48 -175 -83 -192 -92 -204 -97 -217 -89 -7 4 -8 3 -4
-5 5 -8 -25 -27 -91 -57 -54 -25 -142 -68 -197 -95 -62 -31 -106 -48 -120 -44
-11 2 -15 2 -8 -1 15 -7 6 -24 -14 -24 -8 0 -12 5 -9 10 3 6 1 10 -5 10 -7 0
-9 -7 -6 -15 4 -12 -7 -21 -40 -35 -56 -24 -62 -24 -86 -3 -19 17 -25 39 -8
28 6 -3 10 -1 10 5 0 7 -7 9 -16 6 -11 -4 -36 16 -82 66 -37 39 -78 84 -92 98
-14 15 -47 53 -75 85 -27 32 -56 64 -62 71 -7 7 -10 20 -6 30 5 13 3 16 -9 11
-16 -5 -64 43 -204 203 -21 25 -41 47 -44 50 -3 3 -77 84 -165 180 -329 360
-325 355 -325 416 0 27 6 49 17 59 18 19 97 55 118 55 22 0 441 -408 672 -654
55 -59 80 -93 76 -104 -4 -15 -3 -15 6 -2 10 13 13 13 22 -4 6 -10 21 -28 33
-40 11 -11 20 -25 18 -30 -6 -17 9 -65 21 -69 7 -2 4 -3 -6 -1 -9 1 -25 -8
-35 -21 -15 -19 -21 -21 -35 -10 -23 17 -21 28 3 20 21 -7 25 13 5 27 -6 5 -4
8 5 8 8 1 4 6 -10 11 -19 8 -27 6 -37 -7 -17 -24 -17 -24 18 -61 35 -38 59
-42 60 -10 1 16 3 17 6 5 2 -10 0 -25 -5 -35 -7 -11 -7 -24 0 -36 9 -18 10
-18 24 2 9 12 21 21 27 21 9 0 9 -2 1 -8 -6 -4 -15 -18 -19 -31 -6 -20 -4 -23
9 -18 10 4 15 3 11 -3 -7 -12 24 -62 35 -55 4 3 10 -4 13 -15 3 -11 10 -20 17
-20 7 0 9 8 5 23 -7 21 -6 21 11 5 14 -14 15 -20 5 -32 -11 -13 -8 -20 17 -46
l31 -30 33 20 c18 10 51 26 73 34 22 8 88 37 148 65 59 28 109 51 112 51 4 0
132 61 443 211 90 43 174 82 187 85 14 3 25 10 25 14 0 4 11 11 25 14 21 5
104 44 325 149 30 15 66 33 80 42 23 14 331 163 485 235 39 18 82 42 98 52 15
11 27 16 27 13 0 -4 14 5 31 19 17 14 35 26 40 26 6 0 29 9 51 20 23 11 45 20
50 20 15 0 219 102 214 107 -5 5 -149 -39 -191 -57 -22 -10 -100 -38 -220 -80
-44 -16 -141 -53 -215 -83 -242 -98 -414 -169 -445 -183 -46 -21 -236 -100
-375 -155 -69 -28 -143 -59 -165 -69 -22 -10 -65 -28 -95 -40 -30 -11 -64 -25
-75 -30 -90 -41 -143 -62 -181 -72 -24 -7 -44 -16 -44 -20 0 -4 -6 -8 -13 -8
-15 0 -52 -16 -130 -55 -26 -13 -54 -21 -63 -18 -13 5 -13 8 -2 15 9 7 8 8 -5
4 -10 -3 -24 -6 -30 -7 -7 0 -1 -5 12 -10 l25 -10 -29 -15 c-16 -8 -37 -13
-47 -11 -9 3 -16 0 -15 -5 1 -6 -11 -14 -26 -19 -22 -6 -27 -5 -24 6 6 15 -37
27 -50 14 -4 -4 -19 0 -33 11 l-24 18 79 39 c44 21 103 47 130 57 28 11 111
46 185 79 74 33 172 75 218 93 46 19 102 42 125 53 23 10 94 39 157 64 63 25
192 78 285 117 94 39 312 127 485 196 173 69 349 139 390 156 41 16 111 43
155 59 44 16 89 34 100 39 38 18 262 102 485 181 300 107 359 128 400 144 19
7 67 25 105 38 61 22 195 72 415 154 36 14 90 31 121 38 56 13 127 34 142 42
4 2 -5 14 -20 27 -16 12 -138 112 -272 222 -134 109 -260 213 -281 229 -119
95 -561 458 -565 464 -6 11 33 51 51 51 8 0 31 -18 52 -39z m733 -82 c-11
-108 -36 -164 -74 -164 -15 -1 -27 2 -27 5 -1 20 96 258 102 252 5 -5 4 -46
-1 -93z m-169 66 c0 -5 -5 -11 -11 -13 -6 -2 -11 4 -11 13 0 9 5 15 11 13 6
-2 11 -8 11 -13z m-735 -81 c18 -14 33 -29 33 -33 0 -8 -56 -37 -190 -99 -37
-17 -78 -28 -95 -27 -38 3 -105 42 -105 62 0 17 80 54 200 94 105 35 115 35
157 3z m-2482 -106 c-40 -9 -65 -5 -65 9 0 4 24 6 52 4 l53 -4 -40 -9z m2689
-60 c46 -30 47 -32 30 -46 -47 -35 -267 -116 -294 -107 -30 10 -89 61 -82 71
9 14 252 113 278 113 11 1 42 -13 68 -31z m-674 -15 c69 -50 68 -58 -10 -89
-42 -16 -78 -24 -92 -21 -29 8 -97 58 -98 72 0 12 116 64 143 65 11 0 36 -12
57 -27z m-239 -100 c27 -20 49 -40 49 -44 0 -8 -142 -69 -162 -69 -19 0 -113
63 -111 75 1 10 138 73 162 74 8 1 36 -16 62 -36z m1095 -39 c46 -43 48 -46
30 -59 -23 -17 -461 -191 -522 -207 -39 -11 -46 -10 -66 9 -13 11 -40 32 -62
46 l-38 25 43 23 c76 39 513 208 540 208 18 1 42 -14 75 -45z m-700 -36 c16
-13 35 -28 41 -34 7 -7 18 -14 25 -17 21 -7 2 -19 -68 -43 l-67 -22 -54 36
c-60 41 -59 45 22 83 52 24 66 24 101 -3z m-3251 2 c3 -5 1 -10 -4 -10 -6 0
-11 5 -11 10 0 6 2 10 4 10 3 0 8 -4 11 -10z m2581 -31 c30 -22 54 -45 52 -51
-2 -5 -41 -25 -86 -44 l-82 -34 -36 20 c-47 27 -94 62 -94 71 0 6 165 77 183
78 4 1 33 -17 63 -40z m465 -75 c30 -20 55 -39 57 -44 3 -9 -42 -31 -120 -58
l-57 -20 -53 32 c-29 17 -53 38 -53 46 0 13 133 79 161 80 7 0 36 -16 65 -36z
m1125 -29 c36 -34 37 -36 18 -49 -24 -17 -274 -115 -313 -122 -20 -4 -35 1
-58 20 -17 14 -35 26 -41 26 -5 0 -15 6 -21 13 -14 18 12 31 184 97 159 60
181 62 231 15z m1022 -100 c-58 -117 -66 -130 -103 -146 -22 -10 -41 -16 -43
-14 -4 3 123 197 150 230 5 6 18 23 29 38 41 54 30 18 -33 -108z m-2926 86
c80 -51 75 -63 -39 -105 l-71 -27 -39 20 c-53 29 -76 48 -71 61 3 11 142 78
164 79 5 1 31 -12 56 -28z m-3547 -62 c369 -52 748 -187 1019 -364 93 -60 114
-81 99 -96 -7 -7 -56 14 -154 65 -78 42 -145 76 -147 76 -2 0 -2 -9 1 -21 5
-18 2 -20 -26 -14 -18 4 -48 16 -67 26 -48 26 -165 69 -220 80 -25 6 -53 14
-62 19 -10 6 -18 7 -18 2 0 -14 23 -32 41 -32 18 0 35 -17 26 -26 -3 -3 -29 6
-59 19 -29 13 -75 34 -103 47 -27 12 -82 37 -121 56 -67 31 -213 89 -329 129
-27 10 -90 28 -140 41 l-90 24 105 -6 c58 -3 168 -14 245 -25z m4036 -20 c33
-22 59 -42 57 -44 -2 -2 -32 -15 -67 -29 l-63 -26 -64 42 c-35 23 -63 46 -61
52 4 11 85 44 115 45 13 1 50 -17 83 -40z m528 -5 c58 -44 56 -54 -20 -79 -47
-16 -50 -16 -82 4 -46 28 -92 69 -86 76 11 11 114 43 126 40 7 -2 35 -21 62
-41z m-2315 -25 c-8 -14 -24 -10 -24 6 0 9 6 12 15 9 8 -4 12 -10 9 -15z m983
-32 c58 -53 46 -66 -129 -136 -131 -52 -148 -57 -148 -42 0 5 -8 8 -17 7 -11
0 -17 5 -15 13 2 8 -3 11 -12 8 -9 -4 -18 -2 -21 3 -4 6 -1 10 6 10 7 0 5 8
-7 19 -10 10 -25 16 -32 13 -8 -2 -10 1 -7 11 7 15 97 60 230 113 88 34 94 34
152 -19z m2392 -3 c17 -14 31 -29 31 -33 0 -10 -141 -61 -169 -61 -25 0 -91
36 -91 50 0 12 141 69 172 70 14 0 40 -12 57 -26z m-3790 -31 c79 -55 171
-132 171 -141 0 -4 -8 -16 -16 -27 -15 -20 -15 -20 -30 0 -14 19 -15 19 -20
-3 -4 -12 -11 -22 -16 -22 -5 0 -6 5 -3 10 3 6 1 10 -4 10 -6 0 -11 -8 -11
-19 0 -18 -2 -18 -45 -2 -26 9 -45 22 -45 31 0 13 -1 13 -10 0 -12 -18 -13
-30 -2 -29 4 1 13 1 20 0 20 -2 3 -21 -18 -21 -34 0 -62 73 -68 172 -6 107 0
110 97 41z m1956 12 c30 -20 55 -39 55 -44 0 -5 -29 -21 -64 -36 l-64 -27 -66
37 c-36 20 -66 40 -66 44 0 7 72 42 110 55 29 9 40 6 95 -29z m542 9 c42 -28
73 -59 73 -71 0 -11 -191 -83 -219 -83 -28 0 -144 81 -132 93 12 12 202 86
223 86 9 1 34 -11 55 -25z m656 -9 c26 -20 47 -39 47 -43 0 -9 -197 -82 -222
-82 -10 0 -29 10 -42 21 -14 12 -35 27 -47 33 -12 6 -22 16 -21 21 0 13 179
84 212 84 14 0 46 -15 73 -34z m-1421 -103 c31 -20 57 -39 58 -42 0 -3 -15
-10 -32 -16 -18 -6 -49 -18 -69 -27 -35 -16 -36 -16 -102 25 -37 22 -67 44
-67 48 0 12 123 60 140 54 8 -3 41 -22 72 -42z m1102 -30 c45 -47 50 -43 -98
-96 l-96 -35 -27 25 c-16 15 -41 33 -57 41 -21 11 -26 17 -17 26 22 22 225 95
241 87 8 -5 32 -26 54 -48z m613 26 c18 -13 33 -28 33 -33 0 -9 -99 -52 -198
-86 -39 -13 -88 -5 -121 20 l-24 19 24 13 c41 22 213 87 233 88 11 1 35 -9 53
-21z m-1272 -39 c30 -23 55 -45 55 -49 0 -10 -216 -90 -243 -90 -12 0 -44 20
-72 44 l-50 44 40 17 c135 59 172 74 193 74 13 1 47 -18 77 -40z m-4246 -4
c217 -34 344 -63 581 -131 86 -24 251 -86 350 -131 30 -13 87 -39 125 -56 92
-41 198 -104 244 -144 35 -31 35 -32 12 -33 -14 0 -78 18 -144 41 -147 50
-166 51 -203 12 -16 -16 -23 -21 -16 -12 10 13 10 19 2 24 -7 4 -16 2 -20 -5
-5 -8 -15 -10 -26 -5 -18 7 -18 8 -2 18 16 11 15 14 -15 39 -23 20 -39 27 -57
23 -14 -3 -32 0 -40 5 -11 8 -7 9 15 4 24 -5 28 -4 18 6 -6 7 -23 13 -37 13
-14 0 -23 3 -20 8 6 11 -3 11 -45 3 -31 -6 -31 -7 -11 -21 11 -8 25 -11 30 -8
11 6 14 -8 4 -17 -3 -3 -42 15 -87 40 -205 115 -506 246 -677 296 -223 64
-220 69 19 31z m2979 -15 c13 -19 22 -45 20 -60 -3 -22 -15 -29 -88 -57 -86
-33 -144 -41 -155 -23 -3 6 -14 10 -24 10 -25 0 -63 43 -55 63 3 8 18 20 32
26 15 5 63 26 107 45 99 45 131 44 163 -4z m595 -21 c32 -23 55 -45 50 -49
-19 -16 -130 -54 -159 -54 -19 0 -46 11 -65 25 -19 14 -42 28 -51 32 -10 3
-18 10 -18 16 0 5 8 11 18 14 9 3 44 17 77 31 33 14 67 26 75 26 8 0 41 -19
73 -41z m-1758 -4 c35 -20 66 -43 69 -52 5 -13 -1 -14 -48 -9 -48 6 -54 5 -59
-13 -3 -14 -11 -19 -20 -15 -8 3 -28 -1 -44 -9 -18 -8 -59 -13 -114 -13 -78 1
-90 4 -128 30 -23 16 -49 43 -58 59 -15 29 -15 30 9 23 68 -20 123 -18 188 8
91 35 129 33 205 -9z m-966 -48 c24 -12 39 -23 33 -25 -6 -2 -37 11 -69 28
-64 34 -34 32 36 -3z m3716 -11 c35 -31 47 -48 40 -55 -16 -16 -217 -93 -230
-87 -6 2 -34 21 -63 42 -41 31 -49 41 -39 51 10 10 218 91 237 92 3 0 28 -19
55 -43z m-655 -25 l55 -48 -40 -20 c-22 -11 -70 -30 -107 -42 l-68 -23 -32 23
c-48 34 -83 68 -77 74 6 5 200 84 210 85 3 0 30 -22 59 -49z m1203 7 c15 -11
27 -23 27 -27 0 -9 -178 -71 -204 -71 -20 0 -45 26 -46 47 0 15 44 39 114 63
55 18 66 17 109 -12z m-1870 11 c37 -19 117 -74 117 -81 0 -6 -70 -34 -261
-106 -53 -20 -82 -26 -93 -20 -9 5 -21 6 -26 3 -13 -8 -52 14 -45 26 4 5 0 9
-8 9 -18 0 -31 30 -18 43 10 10 79 40 190 83 35 14 76 31 90 39 32 17 28 17
54 4z m-641 -49 c46 -31 74 -58 67 -64 -12 -10 -140 -56 -156 -56 -25 0 -105
68 -97 82 6 9 120 66 135 68 3 0 26 -14 51 -30z m1003 -81 c30 -23 55 -46 55
-53 0 -11 -188 -89 -214 -89 -20 0 -125 67 -126 79 0 7 6 14 13 17 78 35 204
86 210 87 4 0 32 -19 62 -41z m622 1 c29 -23 53 -44 53 -49 0 -8 -26 -19 -136
-56 l-51 -18 -57 43 c-31 23 -56 46 -56 50 0 9 155 69 179 69 8 1 38 -17 68
-39z m2478 20 c-6 -10 -239 -188 -318 -244 -227 -158 -485 -322 -494 -313 -2
3 -14 -5 -26 -17 -33 -33 -156 -98 -169 -90 -6 4 -8 3 -5 -3 7 -11 -22 -34
-58 -46 -14 -5 -11 0 10 18 l30 26 -55 -28 c-30 -15 -56 -31 -58 -35 -2 -5
-11 -8 -19 -8 -8 0 -32 -9 -52 -20 -36 -19 -99 -44 -241 -95 -108 -38 -214
-82 -297 -121 -40 -19 -76 -34 -81 -34 -6 0 -12 -7 -16 -15 -3 -8 -11 -15 -17
-15 -23 0 14 31 105 87 105 64 101 61 94 69 -4 3 -71 -21 -150 -54 -321 -133
-538 -212 -538 -197 0 5 79 49 240 135 195 104 385 206 500 270 284 158 600
318 660 336 14 4 -22 -28 -80 -71 -58 -43 -107 -81 -110 -84 -3 -4 -18 -17
-33 -29 -70 -53 -188 -167 -178 -170 7 -2 17 0 24 6 13 10 110 62 332 177 83
43 168 88 190 100 22 13 65 36 95 52 260 141 521 293 650 380 69 46 75 49 65
33z m-4370 -51 c24 -17 46 -37 49 -45 7 -17 -27 -37 -140 -82 l-98 -39 -32 19
c-18 10 -40 31 -49 45 -10 15 -12 22 -4 18 9 -6 11 -4 6 8 -3 8 0 21 8 27 19
16 177 80 198 80 10 0 38 -14 62 -31z m2326 -14 c19 -14 34 -31 34 -37 0 -10
-319 -144 -745 -312 -74 -29 -155 -63 -180 -74 -25 -12 -83 -37 -130 -56 -47
-19 -141 -58 -210 -86 -69 -29 -158 -66 -199 -82 l-73 -29 -40 26 c-43 28 -45
43 -7 63 30 15 272 118 444 187 72 29 202 83 290 120 128 53 680 274 745 298
27 10 36 7 71 -18z m-1773 -80 c11 -10 1 -18 -55 -39 -38 -14 -78 -26 -89 -26
-25 0 -116 69 -111 84 2 6 35 23 73 37 l69 27 50 -36 c28 -19 56 -41 63 -47z
m1061 15 c28 -22 51 -44 51 -49 0 -10 -104 -55 -211 -92 l-67 -23 -56 43 c-31
24 -56 45 -56 47 0 12 240 113 272 114 9 0 39 -18 67 -40z m-687 -29 c39 -37
50 -52 42 -61 -17 -17 -265 -109 -295 -110 -26 0 -83 43 -72 54 4 3 1 7 -5 7
-7 1 -16 3 -22 4 -5 1 -14 3 -20 4 -23 3 -7 21 38 41 26 12 61 28 77 35 33 16
186 74 197 74 4 1 31 -21 60 -48z m-2485 -5 c0 -8 -6 -12 -15 -9 -11 5 -11 7
0 14 7 5 13 9 14 9 0 0 1 -6 1 -14z m110 -32 c-10 -10 -36 9 -34 26 1 18 2 18
20 -1 11 -11 17 -22 14 -25z m1687 7 c23 -16 48 -37 56 -46 17 -20 12 -24 -83
-61 l-67 -27 -39 31 c-22 18 -45 32 -50 32 -6 0 -11 7 -11 15 0 10 29 30 72
50 40 19 74 35 76 35 2 0 22 -13 46 -29z m-606 -24 c23 -17 42 -36 42 -42 0
-11 -33 -28 -158 -82 -32 -13 -34 -13 -64 21 -17 20 -35 33 -40 30 -10 -6 -11
8 -2 31 7 16 88 62 134 75 28 8 29 8 88 -33z m1607 -77 c38 -40 39 -42 20 -53
-19 -11 -235 -96 -245 -96 -10 -1 -114 99 -109 103 7 8 220 93 244 98 27 6 43
-3 90 -52z m-739 -41 c30 -29 54 -55 54 -58 0 -4 -33 -19 -72 -33 -40 -14
-138 -53 -218 -86 -159 -66 -150 -66 -217 -6 -18 16 -33 34 -33 40 0 13 75 51
215 110 50 20 115 48 145 60 30 13 59 24 63 24 5 0 33 -23 63 -51z m-2131 25
c36 -7 38 -8 15 -14 -24 -6 -24 -7 8 -14 17 -4 32 -12 32 -17 0 -8 -90 27
-127 51 -16 10 -15 11 7 6 14 -2 43 -8 65 -12z m1556 -25 c26 -16 53 -37 60
-45 16 -20 10 -24 -111 -70 -52 -20 -104 -40 -115 -45 -11 -5 -40 -16 -63 -24
l-44 -15 -54 48 c-29 26 -54 50 -54 53 0 8 292 127 314 128 11 1 41 -13 67
-30z m-602 -25 l52 -36 -27 -14 c-14 -8 -31 -14 -36 -14 -24 0 -108 -44 -97
-50 6 -5 -9 -6 -35 -5 -26 2 -44 -1 -41 -6 11 -17 -3 -9 -40 24 l-37 33 40 32
c46 37 141 83 159 77 6 -2 34 -20 62 -41z m1540 -76 c60 -51 59 -52 -57 -99
-45 -18 -92 -42 -103 -52 -19 -18 -20 -18 -52 4 -49 35 -107 83 -107 90 0 4 6
9 13 12 123 55 207 86 228 87 17 0 45 -15 78 -42z m-1354 -80 c30 -24 54 -46
54 -50 1 -10 -54 -38 -75 -38 -15 0 -132 79 -133 91 -1 8 61 38 82 38 10 1 42
-18 72 -41z m462 -40 c24 -23 43 -47 43 -53 0 -13 -5 -16 -195 -97 -77 -34
-149 -67 -160 -74 -19 -12 -24 -9 -63 41 -24 30 -47 55 -53 55 -5 0 -9 4 -9 9
0 12 90 55 255 121 55 21 109 39 120 40 10 0 39 -19 62 -42z m532 -20 c51 -49
49 -52 -57 -88 l-69 -24 -56 44 c-31 24 -55 46 -53 47 10 10 154 62 172 62 12
1 40 -18 63 -41z m-252 -114 c24 -19 41 -39 38 -43 -6 -10 -91 -51 -290 -141
-190 -85 -195 -87 -195 -67 0 8 -18 29 -40 47 -66 54 -80 43 205 158 94 38
177 72 185 75 33 12 55 5 97 -29z m-1705 -62 c11 -11 9 -13 -7 -11 -11 2 -27
-1 -35 -6 -27 -17 -433 -5 -416 13 25 24 435 27 458 4z m1992 -67 c21 -20 37
-37 35 -39 -14 -12 -105 -46 -124 -46 -12 0 -39 15 -61 34 l-39 34 25 10 c14
5 41 17 60 25 51 22 61 20 104 -18z m3101 -1 c-31 -24 -387 -197 -513 -248
-164 -68 -483 -166 -462 -143 5 6 217 91 425 172 162 63 421 169 495 204 74
34 83 37 55 15z m-4818 -86 c41 -20 78 -56 69 -65 -2 -3 -21 3 -42 13 -22 9
-77 32 -124 51 l-85 34 68 -5 c42 -3 86 -14 114 -28z m1462 -22 l33 -34 -48
-21 c-77 -34 -86 -35 -126 -4 -21 15 -37 33 -38 38 0 12 96 54 126 54 11 1 35
-14 53 -33z m-255 -115 l39 -39 -54 -16 -53 -16 -38 37 c-21 20 -38 40 -38 43
0 9 52 28 80 29 18 1 38 -12 64 -38z m1261 -1 c-3 -5 -11 -10 -16 -10 -6 0 -7
5 -4 10 3 6 11 10 16 10 6 0 7 -4 4 -10z m-125 -50 c0 -5 -5 -10 -11 -10 -5 0
-7 5 -4 10 3 6 8 10 11 10 2 0 4 -4 4 -10z m-77 -42 c-13 -6 -23 -15 -23 -20
0 -5 -5 -6 -11 -2 -12 7 26 34 46 33 6 0 0 -5 -12 -11z m-53 -33 c0 -2 -9 -3
-19 -2 -11 0 -18 5 -15 9 4 6 34 0 34 -7z m-1185 -155 c10 -11 15 -20 11 -20
-4 0 -16 9 -28 20 -12 11 -17 20 -11 20 5 0 18 -9 28 -20z m2200 -150 c-33 -8
-228 -49 -505 -104 -96 -19 -298 -60 -448 -91 -151 -31 -278 -55 -284 -53 -16
6 347 122 472 152 144 35 354 72 480 85 58 6 119 13 135 15 17 1 64 3 105 4
55 0 67 -2 45 -8z m-2051 -21 c-3 -6 -1 -15 6 -19 8 -5 3 -8 -13 -7 -32 2 -31
1 -11 21 18 18 28 21 18 5z m-85 -35 c10 -9 -35 -3 -49 6 -11 8 -7 9 15 4 17
-4 32 -8 34 -10z m48 -34 c1 -23 -1 -26 -4 -10 -2 14 -12 31 -21 38 -16 13
-15 14 3 10 15 -2 20 -12 22 -38z m107 -21 c-19 -22 -19 -22 5 -14 16 5 21 4
17 -4 -9 -13 -33 -14 -41 -2 -3 5 2 17 11 25 23 24 30 19 8 -5z m-74 -31 c0
-4 -7 -8 -15 -8 -8 0 -15 -4 -15 -9 0 -13 44 0 53 16 5 7 12 11 18 8 16 -10
10 -20 -21 -34 -34 -14 -60 -9 -60 13 0 8 -6 16 -12 19 -7 2 2 4 20 4 17 0 32
-4 32 -9z"/>
<path d="M7200 7485 c-7 -9 -11 -17 -9 -20 3 -2 10 5 17 15 14 24 10 26 -8 5z"/>
<path d="M6982 7178 c-22 -18 -45 -41 -52 -51 -11 -18 -11 -18 20 -1 37 22 98
84 83 84 -6 0 -29 -15 -51 -32z"/>
<path d="M2198 7053 c7 -3 16 -2 19 1 4 3 -2 6 -13 5 -11 0 -14 -3 -6 -6z"/>
<path d="M2237 7049 c7 -7 15 -10 18 -7 3 3 -2 9 -12 12 -14 6 -15 5 -6 -5z"/>
<path d="M3385 6575 c-16 -7 -52 -22 -80 -34 -27 -11 -45 -20 -39 -21 13 0
144 47 152 55 12 12 -5 12 -33 0z"/>
<path d="M7815 3715 c-25 -12 -26 -14 -5 -9 14 4 29 10 35 15 12 12 5 11 -30
-6z"/>
<path d="M7750 3679 c0 -5 5 -7 10 -4 6 3 10 8 10 11 0 2 -4 4 -10 4 -5 0 -10
-5 -10 -11z"/>
<path d="M8010 3670 c-8 -5 -10 -10 -5 -10 6 0 17 5 25 10 8 5 11 10 5 10 -5
0 -17 -5 -25 -10z"/>
<path d="M7870 3650 c0 -5 5 -10 10 -10 6 0 10 5 10 10 0 6 -4 10 -10 10 -5 0
-10 -4 -10 -10z"/>
<path d="M7825 3641 c-3 -5 -19 -12 -35 -16 -16 -4 -32 -11 -35 -16 -4 -5 2
-6 12 -3 50 16 73 27 73 35 0 12 -7 11 -15 0z"/>
<path d="M7650 3560 c-19 -11 -29 -19 -23 -20 7 0 27 9 45 20 42 25 24 25 -22
0z"/>
<path d="M7525 3500 c-13 -6 -15 -9 -5 -9 8 0 22 4 30 9 18 12 2 12 -25 0z"/>
<path d="M7435 3464 c-16 -9 -46 -25 -65 -35 -35 -19 -35 -19 -5 -12 17 3 32
10 35 14 3 4 26 17 50 28 25 11 38 20 30 20 -8 1 -28 -6 -45 -15z"/>
<path d="M7260 3380 c-9 -6 -10 -10 -3 -10 6 0 15 5 18 10 8 12 4 12 -15 0z"/>
<path d="M7150 3330 c-13 -8 -13 -10 2 -10 9 0 20 5 23 10 8 13 -5 13 -25 0z"/>
<path d="M7105 3310 c-3 -6 1 -7 9 -4 18 7 21 14 7 14 -6 0 -13 -4 -16 -10z"/>
<path d="M7065 3290 c-16 -7 -17 -9 -3 -9 9 -1 20 4 23 9 7 11 7 11 -20 0z"/>
<path d="M6945 3235 c-38 -19 -77 -35 -85 -35 -11 -1 -11 -3 -2 -7 12 -5 162
62 162 72 0 7 2 8 -75 -30z"/>
<path d="M6816 3173 c-4 -5 -11 -8 -14 -9 -18 -2 -55 -23 -42 -23 21 -1 99 37
79 38 -9 1 -19 -2 -23 -6z"/>
<path d="M6700 3120 c-9 -6 -10 -10 -3 -10 6 0 15 5 18 10 8 12 4 12 -15 0z"/>
<path d="M6438 2983 c7 -3 16 -2 19 1 4 3 -2 6 -13 5 -11 0 -14 -3 -6 -6z"/>
<path d="M6355 2940 c-3 -6 1 -7 9 -4 18 7 21 14 7 14 -6 0 -13 -4 -16 -10z"/>
<path d="M6095 2820 c-16 -7 -17 -9 -3 -9 9 -1 20 4 23 9 7 11 7 11 -20 0z"/>
<path d="M5705 2620 c-3 -5 -1 -10 4 -10 6 0 11 5 11 10 0 6 -2 10 -4 10 -3 0
-8 -4 -11 -10z"/>
<path d="M5570 2573 c-14 -7 -18 -13 -10 -13 17 0 47 17 40 23 -3 2 -16 -2
-30 -10z"/>
<path d="M4960 2560 c-13 -9 -13 -10 0 -9 8 0 24 4 35 9 l20 9 -20 0 c-11 0
-27 -4 -35 -9z"/>
<path d="M4585 2400 c4 -6 11 -8 16 -5 14 9 11 15 -7 15 -8 0 -12 -5 -9 -10z"/>
<path d="M3780 2345 c0 -8 7 -15 15 -15 8 0 15 4 15 9 0 5 -7 11 -15 15 -9 3
-15 0 -15 -9z"/>
<path d="M4400 2320 c0 -5 5 -10 10 -10 6 0 10 5 10 10 0 6 -4 10 -10 10 -5 0
-10 -4 -10 -10z"/>
<path d="M3707 2300 c-10 -13 -10 -13 5 -2 12 10 17 10 20 1 4 -13 28 -4 28 9
0 14 -41 8 -53 -8z"/>
<path d="M4305 2284 l-30 -14 35 5 c19 3 39 10 44 15 15 15 -14 12 -49 -6z"/>
<path d="M4915 2260 c-3 -5 -1 -10 4 -10 6 0 11 5 11 10 0 6 -2 10 -4 10 -3 0
-8 -4 -11 -10z"/>
<path d="M4758 2183 c7 -3 16 -2 19 1 4 3 -2 6 -13 5 -11 0 -14 -3 -6 -6z"/>
<path d="M4025 1810 c3 -5 10 -10 16 -10 5 0 9 5 9 10 0 6 -7 10 -16 10 -8 0
-12 -4 -9 -10z"/>
<path d="M4385 3710 c3 -5 8 -10 11 -10 2 0 4 5 4 10 0 6 -5 10 -11 10 -5 0
-7 -4 -4 -10z"/>
</g>
</svg>
